# xmcd
#
# Track frame offsets:
#	150
#	11322
#	23272
#	35077
#	45147
#	56545
#	68897
#	79700
#	91925
#	109972
#	121002
#	133497
#	145472
#	155255
#
# Disc length: 2233 seconds
#
# Revision: 2
# Processed by: cddbd v1.5.1PL0 Copyright (c) Steve Scherf et al.
# Submitted via: audiograbber 1.83.01
#
DISCID=ab08b70e
DTITLE=John Lee Hooker - GOLD
DYEAR=1993
DGENRE=Blues
TTITLE0=Boom Boom
TTITLE1=I'm In The Mood
TTITLE2=Good Rockin' Mama
TTITLE3=Dimples
TTITLE4=Boogie Chillen 2
TTITLE5=Hobo Blues
TTITLE6=No Shoes
TTITLE7=Drug Store Woman
TTITLE8=House Rent Boogie
TTITLE9=Little Wheel
TTITLE10=Trouble Blues
TTITLE11=Whiskey And Wimmen
TTITLE12=Dusty Road
TTITLE13=Baby Lee
EXTD=(P) 1993 Biem/Stemra\n\nA product from Holland\nPressed in Germany\n\nLice
EXTD=nsed from:\nCharley Records\nSan Juan Music Group\n-------------------\n
EXTT0=Hooker
EXTT1=Hooker/Taub
EXTT2=Hooker
EXTT3=Hooker
EXTT4=Hooker/Besman
EXTT5=Josea/Hooker
EXTT6=Hooker
EXTT7=Hooker
EXTT8=Hooker
EXTT9=Hooker
EXTT10=Brown
EXTT11=Hooker
EXTT12=
EXTT13=Bracken/Hooker
PLAYORDER=
